PathFileType	4	(x/y/z)	S08_SL_Cal_T01
DataRate	CameraRate	NumFrames	NumMarkers	Units	OrigDataRate	OrigDataStartFrame	OrigNumFrames
240	240	10	51	mm	240	301	2400
Frame#	Time	Sternum			R.Acromium			L.Acromium			Top.Head			R.ASIS			L.ASIS			R.PSIS			L.PSIS			R.Great.Tro			L.Great.Tro			R.Iliac.Crest			L.Iliac.Crest			V.Sacral			R.Thigh.Upper.Post			R.Thigh.Lower.Ant			R.Thigh.Lower.Post			R.Thigh.Upper.Ant			R.Knee.Lat			R.Knee.Med			R.Shank.Upper.Post			R.Shank.Lower.Ant			R.Shank.Lower.Post			R.Shank.Upper.Ant			R.Ankle.Lat			R.Ankle.Med			R.Heel.Upper			R.Heel.Med			R.Heel.Lat			R.Toe.Lat			R.Toe.Med			R.Toe.Tip			L.Thigh.Upper.Post			L.Thigh.Lower.Ant			L.Thigh.Lower.Post			L.Thigh.Upper.Ant			L.Knee.Lat			L.Knee.Med			L.Shank.Upper.Post			L.Shank.Lower.Ant			L.Shank.Lower.Post			L.Shank.Upper.Ant			L.Ankle.Lat			L.Ankle.Med			L.Heel.Upper			L.Heel.Med			L.Heel.Lat			L.Toe.Lat			L.Toe.Med			L.Toe.Tip			Cervical.Spine			Back			
		X1	Y1	Z1	X2	Y2	Z2	X3	Y3	Z3	X4	Y4	Z4	X5	Y5	Z5	X6	Y6	Z6	X7	Y7	Z7	X8	Y8	Z8	X9	Y9	Z9	X10	Y10	Z10	X11	Y11	Z11	X12	Y12	Z12	X13	Y13	Z13	X14	Y14	Z14	X15	Y15	Z15	X16	Y16	Z16	X17	Y17	Z17	X18	Y18	Z18	X19	Y19	Z19	X20	Y20	Z20	X21	Y21	Z21	X22	Y22	Z22	X23	Y23	Z23	X24	Y24	Z24	X25	Y25	Z25	X26	Y26	Z26	X27	Y27	Z27	X28	Y28	Z28	X29	Y29	Z29	X30	Y30	Z30	X31	Y31	Z31	X32	Y32	Z32	X33	Y33	Z33	X34	Y34	Z34	X35	Y35	Z35	X36	Y36	Z36	X37	Y37	Z37	X38	Y38	Z38	X39	Y39	Z39	X40	Y40	Z40	X41	Y41	Z41	X42	Y42	Z42	X43	Y43	Z43	X44	Y44	Z44	X45	Y45	Z45	X46	Y46	Z46	X47	Y47	Z47	X48	Y48	Z48	X49	Y49	Z49	X50	Y50	Z50	X51	Y51	Z51	

301	1.25	559.44	1246.8	329.33	413.79	1481.1	498.59	406.22	1495.7	163.41	435.41	1806.4	344.73	530.78	1022.3	434.84	537.89	1026.7	201.08	334.3	1050.9	354.78	340.29	1059	261.93	449.83	924.58	501.81	434.35	928.56	135.97	434.44	1091.7	479.02	449.3	1110	174.67	318.56	1017.2	304.92	397.5	737.32	515.25	457.68	623.07	499.96	389.76	646.48	509.45	474.28	717.29	508.56	408.83	529.97	499.58	388.57	518.39	373.27	326.67	355.6	525.6	389.54	291.52	518.24	326.75	277.8	525.42	391.77	368.61	518.36	335.24	102.76	509.38	367.84	112.23	434.17	291.21	66.056	464.09	305.5	39.428	438.28	294.89	42.393	499.47	466.69	31.198	557.58	491.51	44.313	440.64	554.07	59.455	490.88	392.42	737.58	121.37	463.61	633.47	125.49	396.01	646.12	123.97	462.99	722.45	115.05	395.2	534.09	129.26	404.95	513.66	253.85	321.59	357.79	110.58	388.86	268.26	111.39	318.74	283.55	117.34	385.53	344.9	106.8	345.65	105.34	103.01	375.01	102.91	185.64	294.81	75.933	150.43	312.13	42.226	179.35	301.56	48.646	116.54	475.16	38.533	67.424	502.97	44.111	180.58	562.53	59.247	126.95	344.95	1524.2	322.55	324.89	1242.6	334.25
302	1.2542	559.46	1246.8	329.33	413.81	1481.1	498.6	406.21	1495.7	163.41	435.43	1806.4	344.72	530.81	1022.3	434.83	537.93	1026.7	201.08	334.33	1050.8	354.76	340.33	1059	261.91	449.86	924.58	501.8	434.4	928.55	135.96	434.48	1091.7	479.01	449.33	1110	174.66	318.6	1017.2	304.89	397.52	737.33	515.23	457.7	623.07	499.95	389.78	646.48	509.44	474.3	717.29	508.55	408.84	529.97	499.57	388.6	518.39	373.26	326.69	355.6	525.59	389.55	291.52	518.23	326.76	277.8	525.41	391.78	368.61	518.35	335.24	102.76	509.38	367.85	112.23	434.17	291.22	66.058	464.09	305.5	39.428	438.28	294.89	42.396	499.47	466.68	31.203	557.59	491.51	44.313	440.64	554.07	59.453	490.88	392.46	737.58	121.35	463.65	633.46	125.49	396.05	646.12	123.96	463.03	722.45	115.04	395.23	534.09	129.25	404.97	513.67	253.84	321.61	357.79	110.57	388.87	268.26	111.39	318.75	283.55	117.33	385.55	344.9	106.79	345.65	105.34	103.01	375.01	102.91	185.64	294.81	75.933	150.43	312.13	42.227	179.36	301.56	48.647	116.54	475.16	38.532	67.424	502.97	44.11	180.58	562.53	59.245	126.95	344.95	1524.2	322.56	324.91	1242.6	334.25
303	1.2583	559.47	1246.8	329.32	413.82	1481.1	498.6	406.2	1495.7	163.42	435.44	1806.3	344.72	530.84	1022.3	434.82	537.97	1026.7	201.07	334.36	1050.8	354.74	340.37	1059	261.89	449.88	924.58	501.79	434.44	928.55	135.94	434.52	1091.7	479	449.37	1110	174.65	318.64	1017.2	304.87	397.54	737.33	515.22	457.72	623.07	499.94	389.8	646.48	509.42	474.32	717.29	508.54	408.86	529.97	499.56	388.62	518.39	373.25	326.71	355.61	525.59	389.56	291.52	518.22	326.76	277.8	525.4	391.79	368.61	518.34	335.24	102.76	509.38	367.85	112.23	434.16	291.22	66.061	464.09	305.5	39.428	438.28	294.88	42.4	499.46	466.68	31.209	557.6	491.51	44.312	440.64	554.08	59.451	490.88	392.5	737.58	121.34	463.69	633.46	125.49	396.09	646.12	123.94	463.08	722.44	115.04	395.25	534.09	129.24	404.99	513.67	253.83	321.63	357.8	110.56	388.89	268.26	111.38	318.77	283.56	117.33	385.56	344.9	106.79	345.65	105.34	103	375.01	102.92	185.64	294.81	75.934	150.43	312.13	42.227	179.36	301.56	48.649	116.54	475.16	38.531	67.424	502.97	44.109	180.58	562.53	59.243	126.95	344.95	1524.1	322.57	324.93	1242.6	334.24
304	1.2625	559.49	1246.8	329.32	413.84	1481.1	498.61	406.19	1495.7	163.43	435.46	1806.3	344.72	530.87	1022.3	434.82	538.01	1026.7	201.07	334.39	1050.8	354.72	340.41	1059	261.87	449.91	924.58	501.77	434.49	928.55	135.92	434.56	1091.7	478.98	449.4	1110	174.64	318.68	1017.2	304.85	397.56	737.33	515.2	457.74	623.07	499.93	389.82	646.47	509.41	474.34	717.29	508.53	408.87	529.97	499.55	388.64	518.39	373.24	326.73	355.62	525.58	389.56	291.52	518.21	326.77	277.81	525.39	391.8	368.61	518.34	335.25	102.76	509.38	367.86	112.23	434.16	291.22	66.064	464.08	305.5	39.429	438.27	294.88	42.403	499.46	466.67	31.217	557.6	491.51	44.312	440.64	554.08	59.449	490.88	392.54	737.58	121.32	463.73	633.46	125.48	396.13	646.12	123.93	463.12	722.44	115.03	395.28	534.09	129.23	405.01	513.67	253.82	321.64	357.8	110.56	388.9	268.26	111.38	318.78	283.56	117.32	385.58	344.9	106.78	345.65	105.35	103	375.01	102.92	185.63	294.81	75.935	150.43	312.13	42.228	179.36	301.56	48.651	116.54	475.16	38.53	67.424	502.97	44.108	180.58	562.53	59.241	126.95	344.95	1524.1	322.57	324.94	1242.6	334.24
305	1.2667	559.51	1246.8	329.31	413.85	1481.1	498.62	406.18	1495.7	163.44	435.47	1806.3	344.71	530.9	1022.3	434.81	538.05	1026.7	201.06	334.43	1050.8	354.7	340.44	1059	261.85	449.93	924.58	501.76	434.54	928.54	135.9	434.61	1091.6	478.96	449.43	1110	174.62	318.71	1017.2	304.83	397.58	737.33	515.19	457.76	623.07	499.92	389.84	646.47	509.39	474.36	717.29	508.52	408.89	529.97	499.54	388.67	518.38	373.23	326.75	355.62	525.57	389.57	291.52	518.21	326.78	277.81	525.39	391.81	368.61	518.33	335.25	102.76	509.37	367.86	112.23	434.16	291.22	66.068	464.08	305.5	39.429	438.27	294.88	42.406	499.46	466.67	31.225	557.61	491.51	44.311	440.64	554.08	59.447	490.88	392.59	737.58	121.3	463.76	633.45	125.48	396.17	646.12	123.91	463.16	722.43	115.02	395.31	534.09	129.22	405.03	513.68	253.82	321.66	357.81	110.55	388.91	268.26	111.37	318.79	283.57	117.32	385.59	344.9	106.78	345.65	105.35	103	375.01	102.92	185.63	294.81	75.935	150.43	312.12	42.228	179.36	301.56	48.653	116.54	475.16	38.53	67.425	502.97	44.107	180.58	562.53	59.239	126.95	344.96	1524.1	322.58	324.96	1242.6	334.24
306	1.2708	559.52	1246.8	329.31	413.86	1481.1	498.62	406.18	1495.7	163.44	435.48	1806.3	344.71	530.92	1022.3	434.81	538.1	1026.7	201.06	334.46	1050.8	354.68	340.48	1059	261.83	449.95	924.58	501.74	434.59	928.54	135.89	434.66	1091.6	478.95	449.47	1110	174.61	318.75	1017.2	304.81	397.6	737.34	515.18	457.78	623.07	499.91	389.86	646.46	509.38	474.38	717.29	508.52	408.9	529.97	499.53	388.69	518.38	373.22	326.77	355.63	525.56	389.58	291.52	518.2	326.78	277.81	525.38	391.82	368.61	518.32	335.26	102.76	509.37	367.87	112.23	434.15	291.22	66.071	464.08	305.5	39.429	438.27	294.88	42.409	499.46	466.66	31.235	557.61	491.51	44.31	440.64	554.08	59.444	490.89	392.63	737.58	121.29	463.8	633.45	125.47	396.21	646.11	123.9	463.21	722.43	115.02	395.34	534.09	129.22	405.05	513.68	253.81	321.67	357.81	110.54	388.92	268.26	111.37	318.81	283.57	117.31	385.61	344.9	106.78	345.66	105.36	103	375.02	102.92	185.63	294.81	75.936	150.43	312.12	42.228	179.36	301.56	48.655	116.54	475.16	38.529	67.425	502.98	44.106	180.58	562.53	59.237	126.95	344.96	1524.1	322.59	324.98	1242.6	334.24
307	1.275	559.54	1246.8	329.3	413.88	1481.1	498.63	406.17	1495.7	163.45	435.49	1806.3	344.7	530.95	1022.3	434.8	538.14	1026.7	201.05	334.49	1050.8	354.67	340.52	1059	261.81	449.98	924.58	501.73	434.63	928.54	135.87	434.71	1091.6	478.93	449.5	1110	174.6	318.79	1017.2	304.79	397.63	737.34	515.16	457.8	623.06	499.9	389.88	646.46	509.36	474.4	717.29	508.51	408.92	529.97	499.53	388.71	518.38	373.21	326.79	355.63	525.55	389.59	291.52	518.19	326.79	277.81	525.37	391.83	368.62	518.31	335.26	102.76	509.37	367.87	112.23	434.15	291.22	66.075	464.08	305.5	39.43	438.27	294.88	42.412	499.46	466.66	31.245	557.62	491.51	44.309	440.64	554.08	59.442	490.89	392.67	737.58	121.27	463.84	633.44	125.47	396.25	646.11	123.89	463.25	722.42	115.01	395.37	534.09	129.21	405.07	513.68	253.81	321.69	357.81	110.53	388.94	268.27	111.37	318.82	283.57	117.31	385.62	344.89	106.77	345.66	105.36	102.99	375.02	102.92	185.63	294.81	75.938	150.43	312.12	42.228	179.36	301.56	48.657	116.54	475.16	38.529	67.426	502.98	44.106	180.58	562.53	59.235	126.95	344.96	1524.1	322.6	324.99	1242.6	334.23
308	1.2792	559.56	1246.8	329.3	413.89	1481	498.64	406.17	1495.7	163.46	435.5	1806.3	344.7	530.98	1022.3	434.8	538.18	1026.7	201.05	334.52	1050.8	354.65	340.56	1059	261.79	450	924.58	501.72	434.68	928.54	135.85	434.77	1091.6	478.92	449.53	1110	174.59	318.82	1017.1	304.77	397.65	737.34	515.15	457.81	623.06	499.89	389.9	646.45	509.35	474.43	717.29	508.5	408.93	529.97	499.52	388.73	518.38	373.21	326.81	355.64	525.53	389.59	291.52	518.19	326.8	277.82	525.37	391.84	368.62	518.31	335.26	102.76	509.36	367.88	112.22	434.14	291.22	66.078	464.07	305.5	39.43	438.27	294.88	42.415	499.46	466.65	31.256	557.62	491.51	44.308	440.64	554.08	59.44	490.89	392.71	737.58	121.25	463.88	633.44	125.47	396.29	646.11	123.87	463.29	722.42	115	395.4	534.09	129.2	405.09	513.69	253.8	321.71	357.82	110.53	388.95	268.27	111.36	318.83	283.58	117.3	385.64	344.89	106.77	345.66	105.37	102.99	375.02	102.92	185.63	294.81	75.939	150.43	312.11	42.227	179.36	301.57	48.659	116.54	475.16	38.529	67.426	502.98	44.105	180.58	562.53	59.234	126.95	344.97	1524.1	322.61	325.01	1242.6	334.23
309	1.2833	559.58	1246.8	329.29	413.9	1481	498.65	406.16	1495.7	163.47	435.5	1806.3	344.7	531.01	1022.3	434.79	538.22	1026.7	201.05	334.55	1050.8	354.63	340.59	1059	261.78	450.03	924.58	501.71	434.73	928.53	135.84	434.83	1091.6	478.9	449.57	1110	174.58	318.86	1017.1	304.75	397.67	737.35	515.14	457.83	623.06	499.88	389.92	646.45	509.34	474.45	717.28	508.49	408.95	529.97	499.51	388.75	518.38	373.2	326.84	355.64	525.51	389.6	291.53	518.18	326.8	277.82	525.36	391.85	368.62	518.3	335.27	102.76	509.36	367.88	112.22	434.14	291.22	66.081	464.07	305.51	39.43	438.27	294.89	42.417	499.46	466.64	31.267	557.62	491.52	44.307	440.64	554.08	59.438	490.89	392.76	737.58	121.24	463.91	633.44	125.47	396.33	646.1	123.86	463.34	722.41	115	395.43	534.09	129.2	405.11	513.69	253.8	321.72	357.82	110.52	388.96	268.27	111.36	318.85	283.58	117.3	385.65	344.89	106.77	345.66	105.37	102.99	375.02	102.92	185.63	294.82	75.941	150.43	312.11	42.226	179.36	301.57	48.661	116.54	475.16	38.528	67.427	502.98	44.104	180.58	562.53	59.232	126.95	344.97	1524.1	322.62	325.03	1242.6	334.22
310	1.2875	559.6	1246.8	329.29	413.91	1481	498.65	406.16	1495.7	163.48	435.51	1806.3	344.7	531.04	1022.3	434.79	538.26	1026.7	201.04	334.58	1050.8	354.61	340.63	1059	261.76	450.05	924.58	501.7	434.77	928.53	135.82	434.88	1091.6	478.88	449.6	1110	174.57	318.89	1017.1	304.73	397.69	737.35	515.13	457.85	623.06	499.88	389.94	646.45	509.33	474.47	717.28	508.49	408.96	529.97	499.51	388.77	518.37	373.19	326.86	355.64	525.49	389.61	291.53	518.18	326.81	277.82	525.36	391.86	368.62	518.3	335.27	102.76	509.36	367.89	112.22	434.14	291.22	66.084	464.07	305.51	39.431	438.27	294.89	42.419	499.46	466.64	31.277	557.62	491.52	44.306	440.64	554.08	59.435	490.89	392.8	737.58	121.23	463.95	633.43	125.47	396.37	646.1	123.85	463.38	722.41	115	395.45	534.09	129.19	405.13	513.69	253.79	321.74	357.83	110.51	388.97	268.27	111.36	318.86	283.58	117.29	385.67	344.89	106.76	345.67	105.38	102.99	375.02	102.92	185.63	294.82	75.942	150.44	312.11	42.225	179.36	301.57	48.663	116.54	475.16	38.528	67.427	502.98	44.104	180.58	562.53	59.231	126.95	344.97	1524.1	322.63	325.05	1242.6	334.22
